<svg width="500" height="500" viewBox="0 0 500 500" fill="none" xmlns="http://www.w3.org/2000/svg">
<path d="M250 24.183C125.286 24.183 24.183 125.286 24.183 250C24.183 374.714 125.286 475.817 250 475.817C374.714 475.817 475.817 374.714 475.817 250C475.817 125.286 374.714 24.183 250 24.183ZM428.105 203.595L430.637 221.814L448.734 225L432.19 233.047L434.722 251.266L421.936 238.031L405.392 246.078L414.052 229.861L401.266 216.626L419.363 219.812L428.105 203.595ZM388.358 142.647L388.685 124.265L399.224 139.338L416.83 133.987L405.76 148.652L416.299 163.726L398.897 157.721L387.827 172.386L388.154 154.003L370.752 147.998L388.358 142.647ZM313.031 72.3857L329.167 81.2092L342.524 68.5866L339.134 86.6422L355.27 95.4657L337.051 97.835L333.66 115.891L325.776 99.2647L307.557 101.634L320.915 89.0115L313.031 72.3857ZM224.632 65.4821H243.015L248.693 47.9984L254.371 65.4821H272.753L257.884 76.3072L263.562 93.7909L248.693 83.0066L233.824 93.8317L239.502 76.3481L224.632 65.4821ZM154.657 68.8726L168.178 81.3317L184.232 72.3448L176.552 89.0523L190.073 101.511L171.814 99.3464L164.134 116.054L160.539 98.0393L142.279 95.8742L158.333 86.8873L154.657 68.8726ZM99.3464 140.482L109.6 125.204L110.294 143.587L127.982 148.611L110.703 154.943L111.397 173.325L100.041 158.864L82.7614 165.196L93.0147 149.918L81.6585 135.458L99.3464 140.482ZM69.281 223.529L71.5686 205.27L80.4738 221.364L98.5294 217.892L85.9477 231.332L94.8529 247.427L78.1863 239.624L65.6046 253.064L67.8921 234.804L51.2255 227.002L69.281 223.529ZM86.2336 338.848L79.5751 321.691L61.2336 322.712L75.4902 311.111L68.8317 293.954L84.2729 303.922L98.5294 292.32L93.8317 310.09L109.273 320.057L90.9314 321.078L86.2336 338.848ZM145.057 407.639L131.291 395.466L115.441 404.779L122.794 387.909L109.028 375.735L127.328 377.492L134.681 360.621L138.644 378.595L156.944 380.351L141.095 389.706L145.057 407.639ZM212.827 431.74L203.105 447.345L201.797 429.003L183.946 424.592L200.98 417.688L199.673 399.346L211.52 413.44L228.554 406.536L218.832 422.141L230.678 436.234L212.827 431.74ZM300.245 428.554L299.142 446.895L289.216 431.413L271.405 436.07L283.088 421.855L273.162 406.373L290.278 413.072L301.961 398.856L300.899 417.198L318.015 423.897L300.245 428.554ZM284.355 364.42L282.598 366.953C282.598 366.953 268.954 366.953 268.873 366.953L268.219 369.526H231.781L231.25 366.953C228.881 366.953 217.075 366.953 217.075 366.953L215.89 364.42L169.404 364.257L119.649 211.07L141.707 195.057L250 116.503L380.392 211.07L330.678 364.42H284.355ZM386.438 403.268L370.507 394.118L356.863 406.454L360.621 388.44L344.649 379.289L362.949 377.328L366.707 359.314L374.224 376.103L392.524 374.142L378.881 386.479L386.438 403.268ZM421.283 319.812L414.828 337.051L409.926 319.322L391.544 318.505L406.863 308.333L401.961 290.605L416.34 302.043L431.658 291.871L425.204 309.11L439.583 320.547L421.283 319.812ZM374.918 212.582C374.918 212.541 374.877 212.5 374.877 212.459C374.837 212.377 374.796 212.296 374.714 212.255C333.742 182.476 292.729 152.655 251.757 122.876C251.266 122.508 250.776 122.181 250.245 121.814C250.204 121.773 250.163 121.773 250.123 121.773C250.082 121.773 250.041 121.773 249.918 121.773C208.333 151.961 166.748 182.19 125.082 212.459L138.031 217.075C137.99 216.953 137.949 216.83 137.908 216.708C138.889 215.727 140.033 215.074 141.095 214.297C142.198 213.48 143.301 212.704 144.404 211.887C145.466 211.111 146.528 210.335 147.59 209.559C148.693 208.742 149.796 207.966 150.899 207.149C151.961 206.373 153.023 205.596 154.085 204.82C155.147 204.044 156.209 203.268 157.271 202.492C158.374 201.675 159.477 200.899 160.58 200.082C161.642 199.306 162.704 198.529 163.766 197.753C164.869 196.936 165.972 196.16 167.075 195.343C168.137 194.567 169.199 193.791 170.302 193.015C170.507 193.219 170.752 193.382 170.915 193.587C171.814 194.812 172.672 195.997 173.529 197.222C173.325 197.712 172.876 197.917 172.508 198.203C163.562 204.698 154.616 211.234 145.629 217.729C145.098 218.096 144.567 218.505 143.954 218.954C143.995 219.036 143.995 219.077 144.036 219.159L157.026 223.775C156.985 223.611 156.944 223.407 156.904 223.284C156.944 223.162 156.944 223.121 156.944 223.08C156.944 223.039 156.985 222.998 157.026 222.958C164.624 217.443 172.181 211.928 179.779 206.413C179.902 206.332 180.024 206.291 180.147 206.25C181.005 207.149 183.905 211.07 184.518 212.173C183.292 213.235 181.904 214.093 180.596 215.074C179.289 216.054 177.941 216.993 176.593 217.974C175.286 218.913 174.02 219.853 172.712 220.793C171.364 221.773 170.057 222.712 168.709 223.693C167.402 224.632 166.095 225.613 164.747 226.593L177.614 231.168C177.573 231.046 177.533 230.882 177.492 230.76C182.026 227.451 186.52 224.224 190.931 220.997C191.748 221.65 194.771 225.613 195.711 227.206C192.565 229.575 189.338 231.822 186.152 234.191L198.734 238.685C199.387 237.949 200.449 237.132 202.165 236.07C202.247 236.111 202.369 236.07 202.41 236.152C203.717 237.704 204.861 239.338 206.046 240.931C205.923 241.054 205.882 241.136 205.801 241.217L210.989 243.056H240.605L249.918 214.338L259.232 243.056H288.113L294.404 240.85C295.139 239.624 297.181 236.969 297.958 236.152C298.57 236.479 299.101 236.928 299.673 237.337C300.163 237.704 300.694 238.031 301.185 238.48L313.644 234.11C312.786 233.415 311.887 232.802 310.989 232.149C309.886 231.332 308.783 230.556 307.68 229.739C306.618 228.962 305.556 228.186 304.534 227.41C304.902 226.471 307.843 222.427 309.069 221.16C310.131 221.732 321.528 229.984 322.426 230.882C322.426 230.923 322.386 230.964 322.386 231.005L335.131 226.552C334.926 226.389 334.681 226.226 334.477 226.062C331.454 223.815 328.472 221.691 325.449 219.485C322.181 217.116 318.954 214.747 315.686 212.377C316.299 211.275 319.24 207.312 320.098 206.454C320.221 206.495 320.384 206.536 320.466 206.577C328.023 212.051 335.58 217.525 343.178 223.039C343.137 223.284 343.096 223.529 343.015 223.734L355.923 219.199C355.964 219.118 355.964 219.036 356.005 218.913C346.16 211.765 336.397 204.657 326.593 197.549C327.696 196.078 328.676 194.567 329.861 193.137C340.605 200.94 351.307 208.701 361.969 216.462C362.01 216.708 361.969 216.912 361.928 217.116L374.918 212.582ZM289.951 164.216C291.013 164.788 301.92 172.672 302.819 173.57C302.369 174.551 300.572 177.002 299.755 177.819C298.815 177.328 288.194 169.69 286.846 168.505C287.786 167.034 288.807 165.564 289.951 164.216ZM224.428 183.047C223.611 183.905 214.42 190.645 211.152 192.81C211.029 192.729 210.866 192.647 210.743 192.525C209.477 190.768 208.211 189.052 206.944 187.296C206.863 187.173 206.822 187.051 206.74 186.806C211.152 183.578 215.605 180.351 220.016 177.165C220.874 177.982 223.734 181.822 224.428 183.047ZM224.224 174.101C232.802 167.851 241.422 161.601 250.082 155.31C258.824 161.642 267.484 167.974 276.144 174.265C275.49 175.449 272.508 179.412 271.65 180.27C264.502 175.082 257.353 169.894 250.204 164.706C249.591 164.828 249.224 165.237 248.815 165.523C242.524 170.098 236.234 174.673 229.902 179.248C229.493 179.534 229.085 179.82 228.676 180.106C227.819 179.248 224.796 175.245 224.224 174.101ZM220.18 199.755C221.078 199.06 221.977 198.448 222.917 197.753C223.815 197.1 224.714 196.446 225.654 195.752C226.552 195.098 227.451 194.404 228.39 193.791C229.289 193.178 230.106 192.361 231.209 191.871C232.761 193.913 234.232 195.915 235.743 197.917C234.926 198.775 224.346 206.536 222.181 207.884C222.059 207.802 221.895 207.721 221.773 207.598C220.343 205.678 218.954 203.758 217.524 201.797C218.301 200.94 219.281 200.409 220.18 199.755ZM235.253 188.93C236.029 188.154 247.794 179.534 250.123 178.064C255.147 181.699 260.131 185.335 265.114 188.971C264.624 189.992 262.051 193.546 260.58 195.221C260.335 195.098 260.049 194.976 259.804 194.771C256.985 192.729 254.208 190.686 251.389 188.644C250.98 188.358 250.531 188.072 250.082 187.704C246.691 190.155 243.301 192.606 239.951 195.057C239.093 194.363 235.907 190.114 235.253 188.93ZM264.747 198.039C266.176 196.119 267.606 194.199 269.036 192.279C269.077 192.198 269.199 192.198 269.281 192.157C270.302 192.688 281.536 200.817 282.435 201.675C281.822 202.86 278.717 207.149 277.859 207.925C273.489 204.739 269.118 201.552 264.828 198.448C264.747 198.243 264.747 198.203 264.747 198.162C264.706 198.121 264.706 198.039 264.747 198.039ZM276.185 183.578C276.062 183.497 275.98 183.415 275.817 183.252C276.185 182.516 276.716 181.944 277.165 181.291C277.655 180.596 278.186 179.943 278.676 179.248C279.167 178.595 279.616 177.982 280.065 177.41C280.229 177.41 280.27 177.41 280.31 177.41C280.351 177.41 280.392 177.41 280.433 177.451C284.518 180.392 288.562 183.333 292.647 186.275C292.81 186.397 292.933 186.52 293.096 186.642C293.178 186.724 293.178 186.806 293.26 186.969C291.871 188.848 290.482 190.809 289.011 192.81C288.725 192.688 288.521 192.606 288.358 192.443C284.314 189.461 280.27 186.52 276.185 183.578ZM250.123 135.172C262.01 143.832 273.979 152.492 285.989 161.234C284.886 162.745 283.864 164.175 282.721 165.605C271.814 157.68 260.948 149.796 250.041 141.871C239.216 149.714 228.472 157.557 217.729 165.36C216.912 164.624 215.155 162.337 214.502 161.111C215.237 160.335 248.734 135.989 250.123 135.172ZM197.712 173.121C201.716 170.18 205.76 167.279 209.763 164.379C209.926 164.257 210.09 164.175 210.212 164.093C210.989 164.706 211.765 165.686 213.48 168.342C212.5 169.24 211.356 169.976 210.294 170.752C209.15 171.61 208.007 172.427 206.904 173.244C205.801 174.06 204.698 174.837 203.595 175.654C202.492 176.43 201.43 177.288 200.204 178.064C199.142 176.593 198.121 175.204 197.059 173.734C197.304 173.489 197.508 173.284 197.712 173.121ZM178.391 193.913C178.186 194.077 177.941 194.199 177.696 194.363C177.533 194.24 177.41 194.199 177.328 194.077C176.389 192.81 175.408 191.544 174.428 190.237C174.551 190.074 174.632 189.91 174.796 189.828C179.412 186.479 184.028 183.088 188.685 179.698C188.889 179.902 189.134 180.065 189.257 180.27C190.155 181.454 191.013 182.68 191.953 183.946C191.707 184.15 191.544 184.355 191.34 184.518C187.051 187.663 182.721 190.809 178.391 193.913ZM188.603 209.232C187.051 207.19 185.662 205.27 184.191 203.309C185.294 202.247 186.52 201.511 187.704 200.654C188.889 199.755 190.114 198.897 191.34 197.998C192.524 197.141 193.668 196.283 194.853 195.425C196.038 194.608 197.14 193.668 198.366 192.933C199.428 194.077 202.206 197.998 202.696 198.979C198.08 202.369 193.423 205.76 188.603 209.232ZM200.449 223.775C200.286 223.897 200.082 224.02 199.877 224.101C199.06 223.284 196.078 219.322 195.261 217.974C195.343 217.851 195.466 217.688 195.588 217.606C199.959 214.42 204.289 211.275 208.66 208.088C208.823 207.966 208.987 207.884 209.15 207.802C209.967 208.538 211.846 211.07 213.766 213.93C213.603 214.093 213.44 214.338 213.194 214.502C208.946 217.606 204.698 220.67 200.449 223.775ZM210.09 237.99C208.742 236.479 207.68 234.722 206.454 233.129C206.495 233.007 206.495 232.966 206.536 232.925C206.536 232.884 206.577 232.843 206.618 232.802C210.866 229.698 215.074 226.634 219.322 223.529C219.567 223.325 219.853 223.162 220.18 222.958C221.038 223.652 221.528 224.632 222.181 225.49C222.794 226.307 223.366 227.165 223.979 227.982C222.957 228.881 211.152 237.418 210.09 237.99ZM245.588 212.377C241.258 215.523 236.928 218.668 232.598 221.814C232.516 221.855 232.435 221.895 232.353 221.936C231.618 221.364 229.453 218.464 228.636 216.953C229.371 216.217 241.013 207.721 242.402 206.944C243.627 208.619 244.853 210.212 246.078 211.887C245.874 212.051 245.752 212.214 245.588 212.377ZM250.286 209.069C249.51 208.415 247.304 205.474 246.405 203.84C247.304 203.186 248.121 202.574 248.938 201.961C249.265 201.716 249.632 201.471 250 201.226C250.776 201.511 251.348 202.083 252.002 202.533C252.655 202.982 253.268 203.472 253.881 203.922C253.554 204.82 251.471 207.802 250.286 209.069ZM267.729 221.855C266.381 221.078 255.106 212.827 254.371 212.092C254.82 211.152 256.863 208.374 258.088 207.026C262.582 210.294 266.993 213.521 271.405 216.708C270.956 217.729 268.587 220.997 267.729 221.855ZM290.196 238.113C289.134 237.541 277.042 228.758 276.103 227.86C277.288 226.226 278.513 224.551 279.657 222.998C279.861 222.917 279.902 222.876 279.943 222.917C279.984 222.917 280.024 222.958 280.065 222.958C284.518 226.185 288.93 229.371 293.382 232.598C293.587 232.721 293.75 232.884 293.954 233.088C293.015 234.559 291.054 237.255 290.196 238.113ZM300.449 224.224C299.51 223.734 287.541 215.074 286.356 214.011C286.806 213.031 289.869 208.742 290.85 207.761C291.013 207.884 291.217 207.966 291.422 208.088C295.956 211.397 300.531 214.706 305.147 218.056C303.881 220.057 301.225 223.529 300.449 224.224ZM314.747 205.351C314.257 206.046 313.766 206.699 313.235 207.394C312.745 208.007 312.255 208.66 311.765 209.314C310.417 208.538 309.273 207.557 308.047 206.699C306.822 205.842 305.637 204.943 304.412 204.044C303.227 203.186 302.042 202.369 300.899 201.471C299.714 200.572 298.448 199.796 297.345 198.815C298.08 197.508 300.899 193.668 301.675 192.933C302.696 193.464 315.155 202.533 316.136 203.431C315.727 204.126 315.196 204.698 314.747 205.351ZM322.753 194.567C322.508 194.444 322.304 194.363 322.14 194.24C317.606 190.931 313.031 187.623 308.497 184.314C308.374 184.232 308.292 184.11 308.129 183.987C308.374 183.129 309.069 182.516 309.559 181.781C310.049 181.046 310.621 180.351 311.193 179.575C312.541 180.351 313.685 181.332 314.91 182.19C316.176 183.088 317.402 183.987 318.668 184.927C319.894 185.825 321.078 186.683 322.304 187.582C323.489 188.48 324.714 189.338 325.98 190.278C324.877 191.748 323.856 193.137 322.753 194.567Z" fill="black"/>
<path d="M334.559 226.021C331.536 223.775 328.554 221.65 325.531 219.444C328.554 221.609 331.577 223.775 334.559 226.021ZM374.918 212.582C374.918 212.623 374.918 212.663 374.918 212.704C359.109 261.356 327.288 359.191 327.288 359.191L280.596 359.273L280.27 361.642L264.828 361.806L264.542 364.747L235.703 364.828L235.539 362.01C235.539 362.01 234.559 361.806 234.109 361.806C229.902 361.806 220.057 361.806 220.057 361.806L219.73 359.314L172.876 359.232C172.876 359.232 141.095 261.438 125.163 212.377L138.113 216.993C138.072 216.912 138.072 216.83 138.031 216.748C142.484 230.556 146.977 244.322 151.471 258.088C151.552 258.292 151.675 258.497 151.797 258.742C153.35 258.252 154.861 257.721 156.454 257.23C152.328 244.526 148.203 231.863 144.077 219.118L157.067 223.734C157.108 223.856 157.149 223.979 157.19 224.101C157.966 226.552 158.783 229.003 159.559 231.454C161.846 238.44 164.093 245.466 166.381 252.451C166.503 252.859 166.503 253.391 167.075 253.717C168.995 253.145 170.915 252.533 172.957 251.797C172.141 248.856 171.119 246.078 170.261 243.301C169.363 240.523 168.464 237.786 167.565 235.008C166.667 232.19 165.768 229.412 164.828 226.511L164.869 226.471L177.737 231.046C179.657 236.887 181.454 242.606 183.333 248.243C184.436 248.162 188.644 246.814 189.665 246.201C189.542 245.792 189.42 245.343 189.297 244.894C188.276 241.667 187.214 238.48 186.152 235.253C186.07 234.967 185.989 234.641 185.907 234.273C185.989 234.191 186.111 234.109 186.193 234.069L198.774 238.562C198.734 238.603 198.693 238.644 198.693 238.685C199.183 240.074 199.51 241.544 200.163 242.974C202.083 242.361 203.962 241.748 205.801 241.176C205.841 241.176 205.882 241.136 205.882 241.095L211.07 242.933H210.458L234.886 260.703L225.572 289.42L250 271.65L274.428 289.42L265.114 260.784L289.542 243.015H288.194L294.485 240.809C294.444 240.85 294.404 240.931 294.404 240.972C295.221 241.462 298.448 242.525 300.082 242.81C300.613 241.381 301.062 240.033 301.43 238.603C301.389 238.562 301.307 238.48 301.266 238.44L313.725 234.069C313.889 234.191 314.052 234.355 314.216 234.518C314.093 234.967 313.971 235.376 313.848 235.784C312.827 238.889 311.806 242.034 310.825 245.139C310.703 245.507 310.621 245.915 310.498 246.405C312.623 247.1 314.665 247.753 316.789 248.448C318.709 242.565 320.588 236.765 322.467 231.046L335.212 226.593C335.253 226.634 335.294 226.634 335.335 226.675C334.477 229.534 333.538 232.271 332.639 235.049C331.74 237.868 330.801 240.645 329.902 243.464C329.044 246.201 328.064 248.938 327.206 251.838C329.289 252.533 331.25 253.227 333.292 253.799C333.456 253.35 333.619 253.023 333.701 252.655C336.806 243.178 339.869 233.66 342.974 224.183C343.015 224.06 343.056 223.938 343.096 223.775L356.005 219.24C355.923 219.567 355.841 219.853 355.76 220.139C353.717 226.389 351.716 232.639 349.673 238.848C347.794 244.608 345.956 250.327 344.077 256.087C343.954 256.413 343.75 256.781 343.995 257.23C344.69 257.476 345.425 257.721 346.201 257.966C346.936 258.17 347.631 258.619 348.529 258.538C348.693 258.088 348.856 257.639 348.979 257.19C350.449 252.696 351.92 248.203 353.39 243.709C356.168 235.09 358.987 226.511 361.765 217.892C361.846 217.647 361.969 217.402 362.01 217.116L374.918 212.582ZM223.039 295.711C221.201 296.364 219.444 296.773 217.729 297.549C218.219 299.02 218.668 300.449 219.118 301.838C220.752 302.042 222.263 302.002 223.284 301.757C223.366 299.959 223.366 298.162 223.284 296.324C223.325 296.16 223.203 295.997 223.039 295.711ZM198.938 327.9C198.489 327.9 197.998 328.023 197.549 327.655C196.977 325.899 196.405 324.142 195.833 322.345C194.24 317.443 192.647 312.541 191.054 307.639C190.931 307.19 190.891 306.74 190.482 306.413C188.807 306.781 185.539 307.884 184.6 308.374C184.722 309.355 192.075 332.067 192.77 333.701C193.954 333.864 219.526 333.946 222.549 333.824C222.794 333.824 222.998 333.742 223.203 333.742C223.448 332.639 223.448 329.412 223.243 328.105C222.794 327.819 222.263 327.941 221.732 327.941C217.239 327.941 212.704 327.941 208.211 327.941C205.147 327.9 202.042 327.9 198.938 327.9ZM201.266 303.799C202.819 308.497 204.289 313.235 205.882 317.892C207.19 318.096 218.056 318.178 222.426 318.015C222.712 318.015 222.957 317.933 223.203 317.933C223.448 316.667 223.448 312.949 223.162 311.806C222.712 311.806 222.263 311.765 221.814 311.765C218.587 311.765 215.359 311.765 212.091 311.765C211.683 311.765 211.234 311.887 210.825 311.52C209.681 308.088 208.538 304.616 207.394 301.144C207.394 301.103 207.353 301.062 207.312 301.021C207.271 300.98 207.23 300.98 207.19 300.94C205.923 301.185 202.083 302.41 201.062 302.982C201.144 303.268 201.185 303.554 201.266 303.799ZM215.809 273.489C214.788 273.57 212.418 274.306 210.498 275.123C212.214 280.392 213.889 285.539 215.564 290.727C215.768 291.299 215.972 291.871 216.176 292.443C216.176 292.484 216.217 292.525 216.258 292.525C216.299 292.565 216.34 292.565 216.381 292.606C217.484 292.443 220.588 291.462 221.528 290.931C221.283 289.747 216.34 274.51 215.809 273.489ZM201.757 247.958C201.757 248.08 201.757 248.243 201.797 248.366C203.636 253.922 205.433 259.518 207.271 265.074C207.271 265.114 207.312 265.155 207.353 265.196C207.394 265.237 207.435 265.237 207.475 265.237C209.069 264.91 211.765 263.971 212.623 263.521C212.337 262.091 207.475 247.222 206.985 246.201C206.005 246.283 203.105 247.222 201.838 247.835C201.757 247.835 201.716 247.917 201.757 247.958ZM193.832 280.556C193.832 280.678 193.791 280.842 193.832 280.964C195.67 286.601 197.508 292.279 199.387 297.917C199.428 297.998 199.51 298.039 199.632 298.162C201.634 297.549 203.676 296.895 205.719 296.16C205.637 295.752 205.596 295.466 205.474 295.139C203.758 289.828 202.042 284.518 200.286 279.248C200.204 279.003 200.082 278.758 199.959 278.554C198.693 278.717 194.73 280.025 193.832 280.556ZM184.886 253.391C186.724 259.028 188.562 264.665 190.4 270.302C190.441 270.425 190.564 270.547 190.686 270.711C191.707 270.384 192.729 270.098 193.75 269.771C194.771 269.404 195.915 269.199 196.855 268.627C196.283 266.34 191.626 252.206 191.136 251.225C190.931 251.266 190.686 251.307 190.482 251.389C188.725 251.961 186.928 252.574 185.172 253.145C185.049 253.186 185.008 253.268 184.886 253.391ZM183.252 283.946C182.19 284.069 178.35 285.294 177.247 285.866C177.288 286.029 177.288 286.193 177.328 286.397C179.085 291.871 180.882 297.345 182.68 302.819C182.761 303.064 182.925 303.309 183.047 303.554C185.049 302.859 187.051 302.328 189.011 301.552C188.031 297.958 183.783 285.09 183.252 283.946ZM168.382 258.619C168.464 258.946 168.464 259.15 168.546 259.395C170.261 264.706 171.977 270.016 173.734 275.286C173.815 275.531 173.979 275.776 174.101 276.103C176.103 275.449 178.064 274.837 180.065 274.183C180.024 273.856 179.984 273.611 179.943 273.407C178.227 268.056 176.471 262.704 174.714 257.353C174.632 257.108 174.469 256.904 174.346 256.658C172.304 257.312 170.302 257.843 168.382 258.619ZM158.987 280.923C160.458 280.474 161.969 280.065 163.48 279.412C163.194 277.9 162.623 276.511 162.173 275.082C161.724 273.611 161.234 272.141 160.743 270.67C160.294 269.24 159.845 267.81 159.355 266.381C158.864 264.951 158.497 263.44 157.843 262.01C156.25 262.377 154.779 262.949 153.309 263.399C153.309 263.644 153.268 263.807 153.309 263.93C155.106 269.485 156.904 275.041 158.742 280.596C158.742 280.719 158.864 280.801 158.987 280.923ZM167.851 308.374C168.709 308.374 169.444 308.007 170.18 307.761C170.956 307.516 171.814 307.435 172.467 306.863C172.426 306.659 172.426 306.536 172.386 306.413C170.588 300.94 168.832 295.466 167.034 289.951C166.953 289.706 166.789 289.461 166.626 289.175C165.074 289.706 163.521 290.074 162.01 290.727C163.889 296.487 165.727 302.206 167.606 307.884C167.647 308.088 167.729 308.211 167.851 308.374ZM223.162 343.75C222.672 343.75 222.181 343.709 221.65 343.709C215.645 343.709 209.641 343.709 203.636 343.709C197.753 343.709 191.912 343.709 186.029 343.709C185.539 343.709 185.008 343.832 184.395 343.505C183.292 340.074 182.149 336.56 181.005 333.047C179.861 329.493 178.676 325.899 177.533 322.345C176.389 318.832 175.286 315.319 174.101 311.846C172.549 312.051 170.261 312.827 169.363 313.399C173.243 325.368 177.165 337.337 181.087 349.51C181.699 349.51 182.23 349.51 182.721 349.51C195.67 349.51 208.619 349.51 221.569 349.51C221.895 349.51 222.222 349.51 222.549 349.51C222.794 349.469 223.08 349.428 223.325 349.387C223.489 347.1 223.448 344.771 223.162 343.75ZM228.39 301.838C228.595 301.879 228.799 301.92 229.044 301.92C234.109 301.92 239.175 301.92 244.24 301.92C244.444 301.92 244.69 301.838 244.853 301.838C245.057 300.368 245.057 297.508 244.812 296.405C244.608 296.364 244.404 296.324 244.158 296.324C239.093 296.324 234.028 296.324 228.962 296.324C228.758 296.324 228.513 296.405 228.35 296.446C228.145 297.835 228.186 300.735 228.39 301.838ZM228.431 317.933C229.616 318.137 243.709 318.137 244.812 317.933C245.057 316.953 245.098 313.235 244.812 311.846C244.404 311.846 244.077 311.806 243.75 311.806C238.685 311.806 233.619 311.846 228.595 311.846C228.554 311.846 228.513 311.846 228.472 311.887C228.431 311.928 228.39 311.969 228.39 311.969C228.145 313.317 228.186 316.953 228.431 317.933ZM245.016 343.832C244.526 343.791 244.199 343.75 243.913 343.75C239.093 343.75 234.273 343.75 229.453 343.75C229.085 343.75 228.717 343.832 228.39 343.873C228.186 345.507 228.227 348.407 228.472 349.469C228.676 349.51 228.881 349.551 229.126 349.551C234.191 349.551 239.256 349.551 244.322 349.551C244.526 349.551 244.771 349.469 245.016 349.428C245.057 347.508 244.975 345.752 245.016 343.832ZM244.812 328.064C243.709 327.819 233.333 327.737 229.126 327.9C228.84 327.9 228.595 327.982 228.268 328.064C228.268 329.943 228.268 331.74 228.268 333.701C228.595 333.742 228.84 333.824 229.044 333.824C234.109 333.824 239.134 333.824 244.199 333.824C244.404 333.824 244.649 333.742 244.812 333.701C245.098 332.23 245.057 329.085 244.812 328.064ZM255.229 301.797C256.618 302.002 264.992 302.083 270.874 301.961C271.16 301.961 271.405 301.92 271.773 301.879C271.895 300.041 271.855 298.284 271.814 296.405C271.446 296.364 271.242 296.324 271.078 296.324C266.013 296.324 260.948 296.324 255.882 296.324C255.678 296.324 255.433 296.405 255.147 296.487C255.147 298.284 255.065 300.041 255.229 301.797ZM255.147 314.869C255.147 315.891 255.065 316.912 255.229 317.892C256.495 318.137 262.745 318.178 270.588 318.056C270.956 318.056 271.323 317.974 271.691 317.974C271.936 317.279 271.814 316.626 271.814 315.972C271.855 315.278 271.814 314.583 271.814 313.848C271.814 313.194 271.895 312.541 271.732 311.928C271.528 311.887 271.405 311.806 271.283 311.806C266.095 311.806 260.907 311.806 255.678 311.806C255.556 311.806 255.433 311.887 255.188 311.969C255.106 312.909 255.147 313.889 255.147 314.869ZM255.351 333.742C255.556 333.783 255.76 333.824 256.005 333.824C261.029 333.824 266.054 333.824 271.078 333.824C271.283 333.824 271.528 333.742 271.814 333.701C271.936 331.822 271.855 329.984 271.855 328.023C271.364 327.982 271.038 327.9 270.711 327.9C265.89 327.9 261.029 327.9 256.209 327.9C255.882 327.9 255.596 327.982 255.31 328.023C255.065 329.493 255.106 332.68 255.351 333.742ZM271.609 343.791C271.364 343.75 271.078 343.709 270.792 343.709C265.891 343.709 260.948 343.709 256.046 343.709C255.76 343.709 255.515 343.791 255.27 343.832C255.065 345.139 255.106 348.203 255.31 349.387C255.515 349.428 255.719 349.469 255.964 349.469C260.989 349.469 265.972 349.469 270.997 349.469C271.242 349.469 271.528 349.387 271.773 349.306C271.936 347.141 271.855 344.771 271.609 343.791ZM319.935 274.183C321.977 274.918 323.979 275.572 325.94 276.144C326.471 275.041 331.332 260.253 331.74 258.415C329.739 257.761 327.778 257.108 325.776 256.495C325.654 256.781 325.49 256.944 325.449 257.19C323.652 262.827 321.773 268.464 319.935 274.183ZM316.503 284.763C314.706 290.278 312.908 295.792 311.111 301.307C311.029 301.511 311.07 301.757 311.029 302.002C313.031 302.655 314.951 303.35 316.912 303.881C317.484 302.737 322.549 287.173 322.753 285.948C321.814 285.417 318.219 284.232 316.748 283.987C316.707 284.273 316.585 284.518 316.503 284.763ZM303.309 268.832C305.31 269.567 307.353 270.18 309.477 270.833C309.64 270.507 309.722 270.343 309.804 270.18C311.601 264.706 313.358 259.191 315.155 253.717C315.237 253.513 315.196 253.268 315.196 253.023C314.093 252.655 313.113 252.328 312.051 252.002C311.029 251.716 310.09 251.144 308.987 251.144C308.374 252.533 303.472 267.647 303.309 268.832ZM294.281 296.446C295.343 297.018 299.469 298.366 300.572 298.448C301.225 296.487 301.879 294.485 302.533 292.484C303.186 290.523 303.84 288.562 304.453 286.601C305.065 284.6 305.841 282.639 306.332 280.515C304.207 279.82 302.165 279.167 300.163 278.513C299.591 279.575 294.567 295.016 294.281 296.446ZM287.459 263.766C289.216 264.338 290.89 264.951 292.77 265.441C293.464 263.358 294.077 261.397 294.73 259.436C295.384 257.475 296.038 255.515 296.65 253.554C297.263 251.593 297.998 249.714 298.489 247.672C296.691 247.018 294.975 246.446 293.178 245.956C293.056 246.242 292.974 246.446 292.892 246.65C291.136 252.083 289.338 257.516 287.582 262.949C287.541 263.194 287.5 263.44 287.459 263.766ZM278.513 291.422C280.229 291.993 281.944 292.525 283.619 293.096C284.191 292.034 289.297 276.43 289.461 275.082C287.786 274.469 286.07 273.938 284.273 273.407C284.15 273.734 284.028 273.979 283.946 274.224C281.291 281.944 278.717 290.074 278.513 291.422ZM276.675 301.838C278.186 301.961 279.534 301.961 280.841 301.879C281.495 300.49 282.026 298.775 282.067 297.794C280.515 297.304 279.003 296.773 277.41 296.283C277.206 296.242 277.002 296.283 276.675 296.324C276.634 298.162 276.675 299.918 276.675 301.838ZM276.838 317.974C277.083 318.015 277.247 318.056 277.451 318.056C282.802 318.056 288.113 318.056 293.464 318.056C293.75 318.056 293.995 317.933 294.281 317.892C295.833 313.154 297.345 308.497 298.856 303.84C298.897 303.676 298.856 303.472 298.856 303.268C296.814 302.614 294.812 301.961 292.688 301.266C291.381 304.861 290.4 308.374 289.175 311.846C288.644 311.846 288.154 311.846 287.704 311.846C284.477 311.846 281.25 311.846 278.023 311.846C277.614 311.846 277.165 311.724 276.757 312.132C276.757 313.031 276.716 314.011 276.757 314.992C276.716 315.931 276.471 316.953 276.838 317.974ZM276.838 333.701C277.982 333.864 305.964 333.864 307.435 333.701C310.131 325.368 312.827 317.116 315.523 308.864C314.665 308.333 311.438 307.23 309.436 306.781C308.252 310.253 307.149 313.807 306.005 317.279C304.861 320.792 303.758 324.306 302.533 327.859C301.961 327.859 301.471 327.9 300.94 327.9C296.201 327.9 291.462 327.9 286.724 327.9C283.864 327.9 281.005 327.9 278.145 327.9C277.696 327.9 277.206 327.778 276.716 328.227C276.716 329.085 276.675 330.025 276.716 330.964C276.716 331.863 276.511 332.802 276.838 333.701ZM330.678 313.603C329.085 312.949 327.533 312.459 325.899 312.132C324.755 315.686 323.611 319.158 322.467 322.631C321.324 326.144 320.18 329.698 319.036 333.211C317.892 336.683 316.83 340.155 315.605 343.668C314.992 343.668 314.42 343.709 313.889 343.709C302.247 343.709 290.605 343.709 278.962 343.709C278.554 343.709 278.105 343.709 277.696 343.709C277.369 343.709 277.083 343.791 276.757 343.832C276.552 345.588 276.634 348.366 276.838 349.346C277.9 349.51 317.198 349.551 319.036 349.387C322.917 337.459 326.797 325.572 330.678 313.603ZM338.031 290.891C336.683 290.237 334.355 289.502 333.333 289.42C333.292 289.542 333.211 289.665 333.17 289.788C331.332 295.425 329.493 301.062 327.655 306.74C327.573 306.944 327.614 307.19 327.614 307.353C329.943 308.292 331.291 308.701 332.271 308.701C334.191 302.778 336.152 296.814 338.031 290.891ZM346.977 263.521C345.711 262.908 343.219 262.132 342.279 262.051C341.707 263.276 336.806 278.472 336.601 279.575C338.031 280.188 339.583 280.596 341.217 281.127C343.178 275.123 345.057 269.322 346.977 263.521ZM498.203 250C498.203 266.83 496.487 283.66 493.178 300C489.91 315.931 485.049 331.618 478.717 346.609C472.508 361.315 464.788 375.49 455.841 388.766C446.977 401.92 436.765 414.257 425.531 425.49C414.297 436.724 401.961 446.895 388.807 455.801C375.531 464.747 361.356 472.467 346.65 478.676C331.658 485.008 315.972 489.869 300.041 493.137C283.701 496.487 266.871 498.162 250.041 498.162C233.211 498.162 216.381 496.446 200.041 493.137C184.109 489.869 168.423 485.008 153.431 478.676C138.725 472.467 124.551 464.747 111.274 455.801C98.1209 446.936 85.7843 436.724 74.5506 425.49C63.317 414.257 53.1454 401.92 44.2402 388.766C35.2941 375.49 27.5735 361.315 21.3644 346.609C15.0327 331.618 10.1715 315.931 6.90357 300C3.51305 283.66 1.79736 266.83 1.79736 250C1.79736 233.17 3.51305 216.34 6.82187 200C10.0898 184.069 14.951 168.382 21.2827 153.391C27.4918 138.685 35.2124 124.51 44.1585 111.234C53.0229 98.0801 63.2353 85.7435 74.4689 74.5098C85.7026 63.2762 98.0392 53.1046 111.193 44.1994C124.469 35.2533 138.644 27.5327 153.35 21.3236C168.341 14.9919 184.028 10.1307 199.959 6.86277C216.299 3.51309 233.129 1.83826 249.959 1.83826C266.789 1.83826 283.619 3.55394 299.959 6.86277C315.89 10.1307 331.577 14.9919 346.569 21.3236C361.274 27.5327 375.449 35.2533 388.725 44.1994C401.879 53.0637 414.216 63.2762 425.449 74.5098C436.683 85.7435 446.855 98.0801 455.76 111.234C464.706 124.51 472.426 138.685 478.636 153.391C484.967 168.382 489.828 184.069 493.096 200C496.487 216.34 498.203 233.17 498.203 250ZM484.926 250C484.926 120.261 379.739 15.0736 250 15.0736C120.261 15.0736 15.0735 120.261 15.0735 250C15.0735 379.739 120.261 484.926 250 484.926C379.739 484.926 484.926 379.739 484.926 250Z" fill="black"/>
</svg>
